<svg width="200" height="200" viewBox="0 0 200 200" fill="none" xmlns="http://www.w3.org/2000/svg">
<g clip-path="url(#clip0_431_63)">
<path d="M102.997 47.6096C116.108 47.6096 126.736 36.9812 126.736 23.8704C126.736 10.7595 116.108 0.131104 102.997 0.131104C89.8861 0.131104 79.2577 10.7595 79.2577 23.8704C79.2577 36.9812 89.8861 47.6096 102.997 47.6096Z" fill="#C7C7C7"/>
<path d="M126.776 51.1705H120.919H112.165L103.41 61.6499L94.3603 51.1705H85.1073H78.5167H73.4212L71.7228 93.1602H132.494L131.294 51.1705H126.776Z" fill="#C7C7C7"/>
<path d="M31.2742 154.325C44.3814 154.325 55.0069 143.699 55.0069 130.592C55.0069 117.485 44.3814 106.859 31.2742 106.859C18.167 106.859 7.5415 117.485 7.5415 130.592C7.5415 143.699 18.167 154.325 31.2742 154.325Z" fill="#C7C7C7"/>
<path d="M55.0593 157.899H49.2032H40.442L31.6873 168.385L22.6441 157.899H13.391H6.78733H1.69191L0 199.875H60.7778L59.5711 157.899H55.0593Z" fill="#C7C7C7"/>
<path d="M170.496 153.367C183.604 153.367 194.229 142.742 194.229 129.635C194.229 116.527 183.604 105.902 170.496 105.902C157.389 105.902 146.764 116.527 146.764 129.635C146.764 142.742 157.389 153.367 170.496 153.367Z" fill="#C7C7C7"/>
<path d="M198.793 156.941H194.275H188.419H179.658L170.91 167.421L161.86 156.941H152.607H146.016H140.914L139.222 198.924H200L198.793 156.941Z" fill="#C7C7C7"/>
<path d="M77.4936 170.595H68.6667V174.825H77.4936V170.595Z" fill="#C7C7C7"/>
<path d="M130.428 170.595H121.608V174.825H130.428V170.595Z" fill="#C7C7C7"/>
<path d="M112.788 170.595H103.961V174.825H112.788V170.595Z" fill="#C7C7C7"/>
<path d="M95.1341 170.595H86.3138V174.825H95.1341V170.595Z" fill="#C7C7C7"/>
<path d="M32.507 52.9608H28.2772V61.4401H32.507V52.9608Z" fill="#C7C7C7"/>
<path d="M32.507 36.0089H28.2772V44.4882H32.507V36.0089Z" fill="#C7C7C7"/>
<path d="M32.507 69.9193H28.2772V78.3986H32.507V69.9193Z" fill="#C7C7C7"/>
<path d="M32.507 86.8778H28.2772V95.3571H32.507V86.8778Z" fill="#C7C7C7"/>
<path d="M33.3858 22.244H35.504V18.0208H29.1626V24.349H33.3858V22.244Z" fill="#C7C7C7"/>
<path d="M159.027 18.0208H150.2V22.2505H159.027V18.0208Z" fill="#C7C7C7"/>
<path d="M141.38 18.0208H132.553V22.2505H141.38V18.0208Z" fill="#C7C7C7"/>
<path d="M53.151 18.0208H44.3242V22.2505H53.151V18.0208Z" fill="#C7C7C7"/>
<path d="M70.7916 18.0208H61.9713V22.2505H70.7916V18.0208Z" fill="#C7C7C7"/>
<path d="M169.959 24.349H174.188V18.0208H167.854V22.244H169.959V24.349Z" fill="#C7C7C7"/>
<path d="M174.195 66.7518H169.959V75.2245H174.195V66.7518Z" fill="#C7C7C7"/>
<path d="M174.195 32.8284H169.959V41.3076H174.195V32.8284Z" fill="#C7C7C7"/>
<path d="M174.195 49.7933H169.959V58.2726H174.195V49.7933Z" fill="#C7C7C7"/>
<path d="M174.195 83.7039H169.959V92.1831H174.195V83.7039Z" fill="#C7C7C7"/>
</g>
<defs>
<clipPath id="clip0_431_63">
<rect width="200" height="200" fill="white"/>
</clipPath>
</defs>
</svg>
