<svg width="200" height="200" viewBox="0 0 200 200" fill="none" xmlns="http://www.w3.org/2000/svg">
<g clip-path="url(#clip0_431_54)">
<path d="M37.7555 57.9441L29.1887 54.7129C21.3555 51.7648 12.6152 55.7238 9.6668 63.5507C6.71875 71.3839 10.6777 80.1211 18.5078 83.0695L37.7555 90.323V57.9441Z" fill="#C2C2C2"/>
<path d="M152.128 64.1804C152.041 64.489 151.955 64.7793 151.871 65.0844V170.176C151.871 173.086 150.677 175.76 148.768 177.662C146.862 179.577 144.188 180.768 141.275 180.768H63.6644C64.0426 180.151 64.3859 179.508 64.6504 178.803C65.1543 177.451 65.3937 176.081 65.3937 174.733C65.3937 172.412 64.682 170.141 63.3906 168.239C62.0992 166.336 60.2441 164.818 57.9226 163.943L45.9793 159.445H45.9761C44.6316 158.937 43.2644 158.695 41.9133 158.695C39.589 158.695 37.3179 159.407 35.4187 160.701C33.5164 161.996 31.9918 163.848 31.1164 166.169C30.616 167.507 30.3734 168.881 30.3734 170.229C30.3734 172.559 31.0914 174.827 32.3797 176.73C33.6742 178.626 35.5297 180.157 37.8476 181.026L49.7941 185.524C51.139 186.034 52.509 186.273 53.8574 186.273C56.1851 186.273 58.4527 185.555 60.3519 184.27C60.6824 184.047 60.9816 183.785 61.2871 183.527C70.8398 191.552 85.7976 199.446 108.044 199.975C154.52 201.074 166.879 166.642 173.594 128.887C173.594 128.887 189.632 56.5715 190.719 52.7539C196.158 33.6445 162.463 27.8804 152.128 64.1804Z" fill="#C2C2C2"/>
<path d="M55.8535 96.9746V17.2H133.776V144.811H67.0191C66.8644 146.166 66.5558 147.517 66.0551 148.849C64.7922 152.21 62.5465 154.947 59.7777 156.827C59.0504 157.319 58.2914 157.75 57.5039 158.122L59.7906 158.985C63.1508 160.248 65.8945 162.493 67.7719 165.259C69.2992 167.508 70.2597 170.103 70.5683 172.825H141.275C142.021 172.825 142.658 172.535 143.149 172.05C143.634 171.559 143.924 170.916 143.924 170.176V2.64885C143.924 1.90237 143.634 1.26956 143.149 0.777759C142.658 0.289868 142.021 0.00314941 141.275 -0.000366211H48.3511C47.6078 0.00275879 46.9715 0.289478 46.4801 0.777759C45.9949 1.26917 45.7082 1.90237 45.7054 2.64885V92.7321L52.641 95.3367C53.7902 95.7778 54.8613 96.3289 55.8535 96.9746ZM94.8144 164.352C92.2508 164.352 90.1781 162.273 90.1781 159.713C90.1781 157.152 92.2508 155.08 94.8144 155.08C97.3722 155.08 99.4508 157.152 99.4508 159.713C99.4508 162.273 97.3722 164.352 94.8144 164.352Z" fill="#C2C2C2"/>
<path d="M46.241 153.706C47.5887 154.21 48.959 154.449 50.3039 154.449C52.6316 154.449 54.8992 153.738 56.7984 152.446C58.7008 151.155 60.2219 149.296 61.0977 146.978C61.6051 145.63 61.8445 144.263 61.8445 142.915C61.8445 140.588 61.1293 138.316 59.8414 136.42C58.5469 134.521 56.6914 132.994 54.3766 132.121L42.427 127.62C41.082 127.116 39.7121 126.877 38.3637 126.877C36.0359 126.877 33.7684 127.589 31.8691 128.88C29.9699 130.171 28.4457 132.03 27.5699 134.354C27.0598 135.693 26.8234 137.059 26.8203 138.411C26.8203 140.741 27.5387 143.009 28.8266 144.905C30.1211 146.808 31.9758 148.332 34.2977 149.208L46.241 153.706Z" fill="#C2C2C2"/>
<path d="M42.641 121.882C43.9886 122.392 45.359 122.632 46.707 122.632C49.0316 122.632 51.3054 121.92 53.2051 120.629C55.1043 119.334 56.6285 117.479 57.5011 115.161C58.0082 113.809 58.2445 112.443 58.2445 111.091C58.2476 108.766 57.5328 106.499 56.2445 104.596C54.95 102.697 53.0918 101.176 50.7738 100.3L38.8273 95.8023C37.4824 95.2922 36.1152 95.0527 34.764 95.0527C32.4363 95.0527 30.1687 95.7645 28.2695 97.0621C26.3703 98.3508 24.8461 100.212 23.9672 102.53C23.4664 103.872 23.2269 105.245 23.2269 106.593C23.2269 108.917 23.9386 111.185 25.2301 113.087C26.5215 114.987 28.3801 116.511 30.7011 117.39L42.641 121.882Z" fill="#C2C2C2"/>
<path d="M94.8144 115.432C110.62 115.432 123.429 102.619 123.429 86.8137C123.429 71.0055 110.62 58.1962 94.8144 58.1962C79.0035 58.1962 66.1969 71.0055 66.1937 86.8137C66.1969 102.619 79.0035 115.432 94.8144 115.432ZM111.571 103.567C109.095 106.04 106.093 107.958 102.739 109.145C104.349 107.205 105.681 104.717 106.73 101.838H113.139C112.645 102.436 112.119 103.019 111.571 103.567ZM114.95 99.2993H107.552C108.5 95.9165 109.07 92.118 109.174 88.0837H118.471C118.261 92.1872 116.991 96.011 114.95 99.2993ZM118.472 85.5477H109.164C109.067 81.5102 108.509 77.7114 107.558 74.3352H114.95C116.991 77.6169 118.261 81.4407 118.472 85.5477ZM111.571 70.0641C112.119 70.6126 112.645 71.1919 113.139 71.7903H106.73C106.279 70.543 105.772 69.3649 105.212 68.2817C104.484 66.8645 103.653 65.5825 102.746 64.4833C106.097 65.6766 109.098 67.5946 111.571 70.0641ZM96.084 63.154C96.4808 63.179 96.8715 63.2044 97.2652 63.2454C97.8824 63.529 98.5031 63.9036 99.114 64.4048C100.979 65.9227 102.708 68.4962 104.021 71.7907H96.084V63.154ZM96.084 74.3352H104.9C105.914 77.6298 106.528 81.4532 106.638 85.5477H96.084V74.3352ZM96.084 88.0833H106.629C106.512 92.1809 105.898 96.0012 104.896 99.2989H96.084V88.0833ZM96.084 101.838H104.005C103.68 102.663 103.334 103.463 102.959 104.181C101.835 106.361 100.506 108.086 99.1137 109.223C98.5027 109.724 97.8824 110.105 97.2648 110.386C96.8711 110.424 96.4804 110.455 96.0836 110.474V101.838H96.084ZM78.0617 103.567C77.5074 103.019 76.975 102.436 76.4933 101.838H82.8929C83.3496 103.085 83.8472 104.26 84.4113 105.347C85.1453 106.777 85.9676 108.043 86.8777 109.145C83.5293 107.958 80.525 106.039 78.0617 103.567ZM93.5453 110.474C93.1484 110.455 92.7547 110.424 92.3578 110.386C91.7406 110.106 91.1168 109.724 90.5058 109.223C88.6414 107.702 86.9183 105.129 85.5988 101.837H93.5453V110.474ZM93.5453 99.2993H84.7199C83.7152 96.0016 83.0949 92.1747 82.991 88.0837H93.5457V99.2993H93.5453ZM93.5453 85.5477H82.9941C83.098 81.4532 83.7246 77.6294 84.7297 74.3352H93.5453V85.5477ZM90.5058 64.4044C91.1168 63.9036 91.7402 63.5286 92.3578 63.245C92.7547 63.204 93.1484 63.179 93.5453 63.1536V71.7899H85.6144C85.9387 70.9712 86.2886 70.1743 86.6664 69.4466C87.791 67.2673 89.1137 65.5411 90.5058 64.4044ZM78.0617 70.0641C80.525 67.595 83.5359 65.6704 86.8808 64.4833C85.2836 66.4231 83.939 68.918 82.8929 71.7903H76.4933C76.975 71.1919 77.5074 70.6122 78.0617 70.0641ZM74.6695 74.3352H82.0715C81.1199 77.7114 80.5535 81.5102 80.4492 85.5477H71.1484C71.3652 81.4407 72.6285 77.6169 74.6695 74.3352ZM80.4586 88.0833C80.5625 92.1177 81.1105 95.9165 82.0711 99.2989H74.6691C72.6281 96.0106 71.3652 92.1868 71.1476 88.0833H80.4586Z" fill="#C2C2C2"/>
</g>
<defs>
<clipPath id="clip0_431_54">
<rect width="200" height="200" fill="white"/>
</clipPath>
</defs>
</svg>
